#!OML:ASF E:\id_vita\Project 1\Capture day 1\Session 1\Male1.ASF
:FULLY-SPECIFIED
:DEGREES
627
root -23.8659 15.8339 -2.93125 180.397 -16.6373 -179.779
lowerback -3.89913 -0.530705 -3.45722
upperback -0.0550764 -0.568084 -1.58402
thorax 2.14664 -0.333002 0.277399
lowerneck -4.03271 -0.258574 1.86141
upperneck -18.8797 -2.51927 -3.21155
head -5.07311 -1.843 -1.17731
rclavicle -4.17448e-014 2.14687e-014
rhumerus -32.2244 -15.9436 -78.7217
rradius 22.8978
rwrist 11.2904
rhand -23.0404 39.5795
rfingers 7.12502
rthumb 3.40411 9.62697
lclavicle -4.17448e-014 2.14687e-014
lhumerus -25.9017 25.5463 72.1191
lradius 12.8621
lwrist -19.7704
lhand -13.2244 46.1227
lfingers 7.12502
lthumb 12.8769 75.7054
rfemur 3.63916 13.2428 14.3919
rtibia 19.1443
rfoot -21.7035 -1.42107
rtoes -9.82184
lfemur -10.9895 -4.3794 -11.04
ltibia 28.061
lfoot -19.2216 0.0497466
ltoes 35.0965
628
root -23.9379 15.8358 -2.91794 180.536 -16.2432 -180.025
lowerback -3.81249 -0.531552 -3.59918
upperback -0.0192125 -0.568925 -1.71036
thorax 2.13501 -0.336848 0.22738
lowerneck -4.26325 -0.115697 2.1371
upperneck -19.0427 -2.39683 -3.31716
head -5.08537 -1.81741 -1.26099
rclavicle 1.15792e-014 1.43125e-014
rhumerus -32.3294 -16.8501 -78.4572
rradius 22.7037
rwrist 12.5183
rhand -22.8571 39.8806
rfingers 7.12502
rthumb 3.5811 9.93092
lclavicle 1.15792e-014 1.43125e-014
lhumerus -25.2186 24.6415 72.5418
lradius 12.8168
lwrist -18.3253
lhand -14.8446 45.7777
lfingers 7.12502
lthumb 11.3146 75.4525
rfemur 3.47746 12.9917 13.828
rtibia 19.2042
rfoot -21.6347 -2.03769
rtoes -12.97
lfemur -10.9687 -4.09995 -11.5629
ltibia 28.2346
lfoot -19.3997 -0.288787
ltoes 36.5749
629
root -24.006 15.8317 -2.90975 180.556 -15.9014 -180.116
lowerback -3.72133 -0.537138 -3.68615
upperback 0.0627592 -0.574722 -1.74596
thorax 2.16894 -0.342163 0.239306
lowerneck -4.27856 0.0477359 2.2892
upperneck -19.3616 -2.2399 -3.34972
head -5.17872 -1.769 -1.29957
rclavicle 3.35449e-015 -5.56597e-015
rhumerus -32.0406 -17.0871 -78.356
rradius 21.9301
rwrist 13.1043
rhand -22.9981 39.9694
rfingers 7.12502
rthumb 3.44492 10.0175
lclavicle 3.35449e-015 -5.56597e-015
lhumerus -24.7743 26.2688 71.8602
lradius 12.7492
lwrist -20.7439
lhand -12.8805 46.0408
lfingers 7.12502
lthumb 13.2084 75.6024
rfemur 3.32569 12.2053 13.3479
rtibia 19.3986
rfoot -21.6138 -2.25005
rtoes -16.1696
lfemur -10.8056 -3.91597 -11.8997
ltibia 28.2804
lfoot -19.7734 -0.700993
ltoes 37.8643
630
root -24.0695 15.8325 -2.89759 180.722 -15.5793 -180.42
lowerback -3.62744 -0.51394 -4.05301
upperback 0.0702995 -0.536758 -1.77812
thorax 2.12591 -0.328415 0.414109
lowerneck -4.30264 0.0785984 2.20414
upperneck -19.6482 -2.2411 -3.23547
head -5.26295 -1.78907 -1.24725
rclavicle 3.19298e-014 -2.14687e-014
rhumerus -32.0435 -15.8567 -78.6851
rradius 21.8258
rwrist 12.0489
rhand -23.123 39.767
rfingers 7.12502
rthumb 3.32432 9.81322
lclavicle 3.19298e-014 -2.14687e-014
lhumerus -24.1783 26.4527 72.0264
lradius 12.7909
lwrist -20.9589
lhand -12.6069 45.7189
lfingers 7.12502
lthumb 13.4721 75.2631
rfemur 3.02866 11.303 12.6259
rtibia 19.5631
rfoot -21.4782 -1.72107
rtoes -16.4589
lfemur -10.8246 -3.30635 -12.4135
ltibia 28.33
lfoot -20.1967 -0.952986
ltoes 36.8295
631
root -24.1372 15.8483 -2.87957 181.42 -15.2445 -181.389
lowerback -3.85537 -0.466963 -4.99151
upperback -0.0426691 -0.441091 -1.99522
thorax 2.13897 -0.29776 0.718199
lowerneck -4.31251 0.124927 2.1775
upperneck -19.9227 -2.23892 -3.26187
head -5.34725 -1.80204 -1.24902
rclavicle -4.59814e-014 4.77083e-015
rhumerus -32.0798 -16.2453 -78.3694
rradius 21.4155
rwrist 12.5497
rhand -22.9863 40.2872
rfingers 7.12502
rthumb 3.45635 10.3355
lclavicle -4.59814e-014 4.77083e-015
lhumerus -23.517 26.0526 72.4633
lradius 12.81
lwrist -20.6466
lhand -12.8948 45.6989
lfingers 7.12502
lthumb 13.1946 75.2614
rfemur 2.58839 12.1476 11.426
rtibia 19.6735
rfoot -20.9283 -1.71954
rtoes -12.1203
lfemur -11.2629 -3.2246 -13.6678
ltibia 28.4439
lfoot -20.6169 -0.834699
ltoes 36.7171
632
root -24.2056 15.8462 -2.86716 181.048 -15.0315 -180.68
lowerback -3.502 -0.473418 -4.30071
upperback 0.0459582 -0.483696 -1.78954
thorax 2.03038 -0.30406 0.544887
lowerneck -4.28678 0.26681 2.29977
upperneck -20.2439 -2.12187 -3.36131
head -5.45009 -1.76714 -1.30234
rclavicle -3.15384e-014 7.95139e-015
rhumerus -32.5251 -17.1941 -77.9297
rradius 21.9675
rwrist 13.7136
rhand -22.5353 40.4911
rfingers 7.12502
rthumb 3.89188 10.5469
lclavicle -3.15384e-014 7.95139e-015
lhumerus -22.8513 25.543 72.8224
lradius 12.7525
lwrist -20.1533
lhand -13.3582 45.6835
lfingers 7.12502
lthumb 12.7479 75.2743
rfemur 2.66359 11.3374 12.0009
rtibia 19.8503
rfoot -20.4685 -3.43593
rtoes -18.0952
lfemur -10.9927 -3.78686 -13.2012
ltibia 28.548
lfoot -20.9723 -0.45084
ltoes 37.2488
633
root -24.2766 15.834 -2.85354 181.017 -14.7803 -180.593
lowerback -3.30552 -0.497699 -4.13798
upperback 0.0386431 -0.532762 -1.79008
thorax 1.91307 -0.324236 0.452942
lowerneck -4.31733 0.357621 2.446
upperneck -20.3918 -2.02855 -3.34354
head -5.48932 -1.74524 -1.32364
rclavicle -2.24813e-014 -3.65764e-014
rhumerus -32.1518 -15.5343 -78.5848
rradius 21.1993
rwrist 12.4921
rhand -22.9139 40.6122
rfingers 7.12502
rthumb 3.52627 10.6616
lclavicle -2.24813e-014 -3.65764e-014
lhumerus -22.483 24.8793 73.0829
lradius 13.218
lwrist -19.4993
lhand -13.2752 45.835
lfingers 7.12502
lthumb 12.8279 75.4209
rfemur 2.43831 9.65132 11.6139
rtibia 20.0414
rfoot -20.3899 -3.91652
rtoes -22.1972
lfemur -10.9157 -4.15646 -13.436
ltibia 28.617
lfoot -21.3243 0.167487
ltoes 36.9524
634
root -24.3484 15.8403 -2.84418 181.206 -14.5115 -181.075
lowerback -3.20422 -0.442276 -4.49069
upperback -0.0111004 -0.462393 -1.95534
thorax 1.80348 -0.294294 0.484584
lowerneck -4.37724 0.377593 2.4385
upperneck -20.3656 -1.99 -3.26422
head -5.4695 -1.73221 -1.29913
rclavicle -2.51773e-014 3.89618e-014
rhumerus -32.7272 -16.9144 -77.9049
rradius 21.5102
rwrist 14.284
rhand -22.6173 40.7255
rfingers 7.12502
rthumb 3.81267 10.7798
lclavicle -2.51773e-014 3.89618e-014
lhumerus -21.9623 23.6047 73.559
lradius 13.4922
lwrist -18.3255
lhand -13.2053 45.8264
lfingers 7.12502
lthumb 12.8953 75.408
rfemur 2.1523 8.33165 10.6506
rtibia 20.092
rfoot -20.6803 -3.13987
rtoes -21.6734
lfemur -10.941 -4.37497 -14.2713
ltibia 28.791
lfoot -21.8284 0.738272
ltoes 36.2816
635
root -24.418 15.8458 -2.83493 181.356 -14.2116 -181.553
lowerback -3.12724 -0.405978 -4.9094
upperback -0.00151201 -0.410882 -2.05231
thorax 1.77003 -0.275343 0.62131
lowerneck -4.51653 0.424417 2.30725
upperneck -20.419 -1.95805 -3.262
head -5.46157 -1.71935 -1.27751
rclavicle -4.93856e-015 1.27222e-014
rhumerus -33.1467 -17.051 -77.6673
rradius 22.1202
rwrist 14.5386
rhand -22.2628 40.4269
rfingers 7.12502
rthumb 4.15501 10.4877
lclavicle -4.93856e-015 1.27222e-014
lhumerus -21.3992 23.0209 73.9298
lradius 13.5411
lwrist -17.7254
lhand -13.6953 45.53
lfingers 7.12502
lthumb 12.4229 75.1408
rfemur 1.97162 7.9061 9.9433
rtibia 20.3912
rfoot -20.6546 -3.87853
rtoes -22.7951
lfemur -10.7958 -4.64186 -15.0884
ltibia 28.7292
lfoot -22.1373 1.28311
ltoes 35.9344
636
root -24.4826 15.8375 -2.82435 181.543 -13.8109 -181.959
lowerback -3.11687 -0.366388 -5.28288
upperback -0.0360805 -0.355028 -2.13605
thorax 1.72743 -0.253059 0.746109
lowerneck -4.58491 0.476505 2.2916
upperneck -20.5094 -1.92134 -3.28149
head -5.47761 -1.7103 -1.28175
rclavicle -4.29251e-015 1.11319e-014
rhumerus -32.8784 -16.5111 -77.837
rradius 21.3525
rwrist 13.9661
rhand -22.58 40.1594
rfingers 7.12502
rthumb 3.84866 10.2144
lclavicle -4.29251e-015 1.11319e-014
lhumerus -20.9828 22.9209 74.1008
lradius 13.6512
lwrist -17.8101
lhand -14.2187 45.5351
lfingers 7.12502
lthumb 11.9182 75.1759
rfemur 1.79496 8.15476 9.32936
rtibia 20.5927
rfoot -20.2973 -3.90635
rtoes -20.4891
lfemur -10.7509 -4.47792 -15.7952
ltibia 28.707
lfoot -22.1048 1.36364
ltoes 36.7158
637
root -24.5463 15.8559 -2.82296 181.606 -13.3916 -182.065
lowerback -3.11127 -0.272686 -5.37135
upperback -0.0929072 -0.234826 -2.2012
thorax 1.65931 -0.193816 0.734243
lowerneck -4.24285 0.486935 2.42456
upperneck -20.7168 -1.91167 -3.31291
head -5.6 -1.7094 -1.31136
rclavicle 8.74031e-015 2.62396e-014
rhumerus -33.6447 -17.7471 -77.3244
rradius 22.0907
rwrist 15.1106
rhand -22.3129 39.973
rfingers 7.12502
rthumb 4.10662 10.0328
lclavicle 8.74031e-015 2.62396e-014
lhumerus -20.5853 22.1678 74.3071
lradius 13.8599
lwrist -17.5215
lhand -14.3356 46.0256
lfingers 7.12502
lthumb 11.8055 75.6729
rfemur 1.49155 8.16251 8.9891
rtibia 20.6127
rfoot -20.175 -2.55015
rtoes -14.9364
lfemur -10.6687 -3.73388 -16.154
ltibia 28.7256
lfoot -21.9516 1.07234
ltoes 36.8199
638
root -24.6111 15.8466 -2.81835 181.431 -12.9939 -181.815
lowerback -3.01822 -0.181919 -5.09297
upperback -0.126026 -0.127246 -2.15261
thorax 1.56701 -0.133533 0.634663
lowerneck -3.64259 0.476827 2.48235
upperneck -21.03 -1.91648 -3.32435
head -5.79936 -1.70488 -1.31962
rclavicle -1.65178e-014 2.14687e-014
rhumerus -33.275 -16.955 -77.5805
rradius 20.7894
rwrist 14.2632
rhand -22.6989 40.956
rfingers 7.12502
rthumb 3.73386 11.0089
lclavicle -1.65178e-014 2.14687e-014
lhumerus -20.2168 20.9388 74.6344
lradius 14.022
lwrist -16.5668
lhand -14.1211 46.3241
lfingers 7.12502
lthumb 12.0123 75.9594
rfemur 1.6507 7.81263 9.07794
rtibia 20.6562
rfoot -19.999 -4.7565
rtoes -22.1828
lfemur -10.5275 -3.0611 -16.1326
ltibia 28.8725
lfoot -22.0152 0.893447
ltoes 36.4223
